<svg width="34" height="35" viewBox="0 0 34 35" fill="none" xmlns="http://www.w3.org/2000/svg">
    <!-- Circle remains white -->
    <path d="M16.8 0.580566C7.5215 0.580566 0 8.10207 0 17.3806C0 26.6591 7.5215 34.1806 16.8 34.1806C26.0785 34.1806 33.6 26.6591 33.6 17.3806C33.6 8.10207 26.0785 0.580566 16.8 0.580566Z" fill="white"/>
    <!-- Instagram logo in red -->
    <path d="M17,8.5C12.86,8.5 9.5,11.86 9.5,16C9.5,20.14 12.86,23.5 17,23.5C21.14,23.5 24.5,20.14 24.5,16C24.5,11.86 21.14,8.5 17,8.5M17,21.5C14.24,21.5 12,19.26 12,16.5C12,13.74 14.24,11.5 17,11.5C19.76,11.5 22,13.74 22,16.5C22,19.26 19.76,21.5 17,21.5M21.5,7.5C21.5,8.33 20.83,9 20,9C19.17,9 18.5,8.33 18.5,7.5C18.5,6.67 19.17,6 20,6C20.83,6 21.5,6.67 21.5,7.5Z" fill="#FF0000"/>
</svg>
